<svg width="64" height="64" viewBox="0 0 64 64" fill="none" xmlns="http://www.w3.org/2000/svg">
  <!-- Background Circle with Gradient -->
  <defs>
    <linearGradient id="bgGradient" x1="0%" y1="0%" x2="100%" y2="100%">
      <stop offset="0%" style="stop-color:#6366f1;stop-opacity:1" />
      <stop offset="100%" style="stop-color:#4338ca;stop-opacity:1" />
    </linearGradient>
    <linearGradient id="iconGradient" x1="0%" y1="0%" x2="100%" y2="100%">
      <stop offset="0%" style="stop-color:#ffffff;stop-opacity:1" />
      <stop offset="100%" style="stop-color:#e0e7ff;stop-opacity:1" />
    </linearGradient>
  </defs>

  <!-- Background -->
  <rect width="64" height="64" rx="12" fill="url(#bgGradient)"/>

  <!-- CRM Icon: Customer (person) + Relationship (connecting lines) + Management (chart) -->

  <!-- Person Icon (Customer) -->
  <circle cx="32" cy="22" r="6" fill="url(#iconGradient)" opacity="0.95"/>
  <path d="M 22 38 Q 22 30 32 30 Q 42 30 42 38 L 42 44 L 22 44 Z" fill="url(#iconGradient)" opacity="0.95"/>

  <!-- Connecting Network Lines (Relationship) -->
  <circle cx="16" cy="34" r="3" fill="#818cf8" opacity="0.8"/>
  <circle cx="48" cy="34" r="3" fill="#818cf8" opacity="0.8"/>
  <line x1="19" y1="34" x2="26" y2="40" stroke="#a5b4fc" stroke-width="2" opacity="0.6"/>
  <line x1="45" y1="34" x2="38" y2="40" stroke="#a5b4fc" stroke-width="2" opacity="0.6"/>

  <!-- Chart/Growth Line (Management) -->
  <path d="M 12 52 L 18 48 L 24 50 L 30 46 L 36 48 L 42 44 L 48 46 L 52 42"
        stroke="#ffffff" stroke-width="2.5" fill="none" stroke-linecap="round"
        stroke-linejoin="round" opacity="0.4"/>
</svg>
