<svg width="200" height="48" viewBox="0 0 200 48" fill="none" xmlns="http://www.w3.org/2000/svg">
  <defs>
    <linearGradient id="logoGradient" x1="0%" y1="0%" x2="100%" y2="100%">
      <stop offset="0%" style="stop-color:#6366f1;stop-opacity:1" />
      <stop offset="100%" style="stop-color:#4338ca;stop-opacity:1" />
    </linearGradient>
  </defs>

  <!-- Icon Circle -->
  <rect x="2" y="2" width="44" height="44" rx="10" fill="url(#logoGradient)"/>

  <!-- CRM Icon -->
  <circle cx="24" cy="17" r="4.5" fill="white" opacity="0.95"/>
  <path d="M 16 29 Q 16 23 24 23 Q 32 23 32 29 L 32 33 L 16 33 Z" fill="white" opacity="0.95"/>

  <!-- Network nodes -->
  <circle cx="12" cy="26" r="2.5" fill="#818cf8" opacity="0.8"/>
  <circle cx="36" cy="26" r="2.5" fill="#818cf8" opacity="0.8"/>
  <line x1="14" y1="26" x2="19" y2="30" stroke="#a5b4fc" stroke-width="1.5" opacity="0.6"/>
  <line x1="34" y1="26" x2="29" y2="30" stroke="#a5b4fc" stroke-width="1.5" opacity="0.6"/>

  <!-- Chart line -->
  <path d="M 8 38 L 12 36 L 16 37 L 20 34 L 24 36 L 28 33 L 32 35 L 36 32 L 40 34"
        stroke="white" stroke-width="2" fill="none" stroke-linecap="round" opacity="0.35"/>

  <!-- Text -->
  <text x="54" y="26" font-family="system-ui, -apple-system, sans-serif" font-size="18" font-weight="700" fill="#6366f1">
    CRM
  </text>
  <text x="54" y="40" font-family="system-ui, -apple-system, sans-serif" font-size="14" font-weight="500" fill="#94a3b8">
    Lite
  </text>
</svg>
